#N canvas 603 120 837 681 10;
#X msg 449 228 wet \$1;
#X msg 449 251 dry \$1;
#X msg 448 205 roomsize \$1;
#X obj 247 388 delwrite~ delayLeft 4000;
#X obj 257 363 delwrite~ delayRight 4000;
#X obj 351 23 loadbang;
#X obj 48 28 inlet~;
#X obj 208 154 vu 15 80 empty empty -1 -8 0 10 #404040 #606060 1 0
;
#X obj 264 224 bng 15 250 50 0 \$0-reset empty Reset 20 8 0 12 #ffffff
#000000 #000000;
#X obj 234 202 hsl 128 15 0 1 0 0 empty rev_dry dry 57 8 0 10 #00ff04
#000000 #000000 0 1;
#X obj 234 183 hsl 128 15 0 1 0 0 empty rev_wet wet 57 8 0 10 #00ff04
#000000 #000000 0 1;
#X obj 234 164 hsl 128 15 0 1 0 0 empty rev_room_size room_size 38
8 0 10 #00ff04 #000000 #000000 0 1;
#X obj 326 224 tgl 15 0 \$0-active active-reverb Active 20 8 0 12 #fcfcfc
#000000 #000000 0 1;
#X obj 371 164 nbx 5 14 0 1 0 0 empty empty empty 0 -8 0 10 #fcfcfc
#000000 #000000 0 256;
#X obj 371 183 nbx 5 14 0 1 0 0 empty empty empty 0 -8 0 10 #fcfcfc
#000000 #000000 0 256;
#X obj 371 202 nbx 5 14 0 1 0 0 empty empty empty 0 -8 0 10 #fcfcfc
#000000 #000000 0 256;
#X obj 280 23 r \$0-reset;
#X msg 320 58 \; rev_room_size 0 \; rev_wet 0 \; rev_dry 0.2;
#X text 464 57 Switch off Activate toggle in order to bypass the effect
and save CPU cycles.;
#X text 468 96 Reset will restore the effect to its defaupt values.
;
#X obj 135 318 freeverb~/freeverb~;
#X obj 207 117 pvu~;
#X obj 78 50 r \$0-active;
#X obj 135 460 outlet~;
#X obj 47 78 expr~ $v1*(1-$f2) \; $v1*$f2;
#X connect 0 0 20 0;
#X connect 1 0 20 0;
#X connect 2 0 20 0;
#X connect 5 0 17 0;
#X connect 6 0 24 0;
#X connect 9 0 15 0;
#X connect 10 0 14 0;
#X connect 11 0 13 0;
#X connect 13 0 2 0;
#X connect 14 0 0 0;
#X connect 15 0 1 0;
#X connect 16 0 17 0;
#X connect 20 0 3 0;
#X connect 20 0 23 0;
#X connect 20 0 21 0;
#X connect 20 1 4 0;
#X connect 20 1 23 0;
#X connect 21 0 7 0;
#X connect 22 0 24 1;
#X connect 24 0 23 0;
#X connect 24 1 20 0;
#X coords 0 -1 1 1 232 100 1 200 142;
