#N canvas 65 99 1313 705 12;
#X obj 21 14 tgl 15 0 empty empty empty 17 7 0 10 #fcfcfc #000000 #000000
0 1;
#X obj 21 72 f;
#X obj 74 74 + 1;
#X obj 21 137 hradio 15 1 0 10 empty empty empty 0 -8 0 10 #fcfcfc
#000000 #000000 0;
#X floatatom 21 170 5 0 0 0 - - - 0;
#X obj 21 41 metro 300;
#X obj 217 86 counter;
#X floatatom 217 152 5 0 0 0 - - - 0;
#X obj 217 15 tgl 15 0 empty empty empty 17 7 0 10 #fcfcfc #000000
#000000 0 1;
#X obj 217 42 metro 300;
#X obj 217 67 bng 15 250 50 0 empty empty empty 17 7 0 10 #fcfcfc #000000
#000000;
#X text 264 117 limitador;
#X text 274 87 contador;
#X obj 217 216 bng 15 250 50 0 empty empty empty 17 7 0 10 #fcfcfc
#000000 #000000;
#X obj 235 216 bng 15 250 50 0 empty empty empty 17 7 0 10 #fcfcfc
#000000 #000000;
#X obj 272 216 bng 15 250 50 0 empty empty empty 17 7 0 10 #fcfcfc
#000000 #000000;
#X obj 254 216 bng 15 250 50 0 empty empty empty 17 7 0 10 #fcfcfc
#000000 #000000;
#X obj 291 216 bng 15 250 50 0 empty empty empty 17 7 0 10 #fcfcfc
#000000 #000000;
#X obj 309 216 bng 15 250 50 0 empty empty empty 17 7 0 10 #fcfcfc
#000000 #000000;
#X obj 328 215 bng 15 250 50 0 empty empty empty 17 7 0 10 #fcfcfc
#000000 #000000;
#X obj 347 215 bng 15 250 50 0 empty empty empty 17 7 0 10 #fcfcfc
#000000 #000000;
#X msg 288 267 500;
#X obj 289 404 dac~;
#X obj 290 375 *~;
#X obj 339 354 tgl 15 0 empty empty empty 17 7 0 10 #fcfcfc #000000
#000000 0 1;
#X obj 217 184 route 1 2 3 4 5 6 7;
#X floatatom 277 13 5 0 0 0 - - - 0;
#X floatatom 364 99 5 0 0 0 - - - 0;
#X obj 364 -5 tgl 15 0 empty empty empty 17 7 0 10 #fcfcfc #000000
#000000 0 1;
#X obj 364 47 bng 15 250 50 0 empty empty empty 17 7 0 10 #fcfcfc #000000
#000000;
#X obj 364 22 metro 800;
#X obj 542 296 dac~;
#X obj 543 267 *~;
#X obj 580 252 tgl 15 0 empty empty empty 17 7 0 10 #fcfcfc #000000
#000000 0 1;
#X obj 611 293 dac~;
#X obj 612 264 *~;
#X obj 649 249 tgl 15 0 empty empty empty 17 7 0 10 #fcfcfc #000000
#000000 0 1;
#X obj 674 293 dac~;
#X obj 675 264 *~;
#X obj 712 249 tgl 15 0 empty empty empty 17 7 0 10 #fcfcfc #000000
#000000 0 1;
#X obj 746 292 dac~;
#X obj 747 263 *~;
#X obj 784 248 tgl 15 0 empty empty empty 17 7 0 10 #fcfcfc #000000
#000000 0 1;
#X obj 217 117 mod 8;
#X floatatom 435 1 5 0 0 0 - - - 0;
#X obj 21 106 mod 10;
#X msg 179 259 100;
#X msg 361 262 50;
#X msg 400 261 800;
#X msg 253 263 700;
#X msg 144 269 90;
#X obj 364 72 random 8;
#X obj 290 341 osc~;
#X obj 193 339 phasor~;
#X obj 192 409 dac~;
#X obj 193 380 *~;
#X obj 230 365 tgl 15 0 empty empty empty 17 7 0 10 #fcfcfc #000000
#000000 0 1;
#X obj 23 280 tgl 15 0 empty empty empty 17 7 0 10 #fcfcfc #000000
#000000 0 1;
#X obj 23 332 bng 15 250 50 0 empty empty empty 17 7 0 10 #fcfcfc #000000
#000000;
#X floatatom 94 286 5 0 0 0 - - - 0;
#X obj 59 398 sel 4;
#X obj 58 436 bng 15 250 50 0 empty empty empty 17 7 0 10 #fcfcfc #000000
#000000;
#X obj 118 441 bng 15 250 50 0 empty empty empty 17 7 0 10 #fcfcfc
#000000 #000000;
#X obj 117 411 sel 3;
#X obj 23 307 metro 100;
#X obj 23 357 drunk 5;
#X msg 217 259 70;
#X msg 325 264 1000;
#X obj 956 37 notein;
#X text 1022 77 channel;
#X floatatom 955 80 4 0 127 0 - - - 0;
#X floatatom 997 77 0 1 64 0 - - - 0;
#X msg 595 140 261;
#X msg 630 140 293;
#X msg 669 143 329;
#X msg 704 144 349;
#X obj 968 163 bng 15 250 50 0 empty empty empty 17 7 0 10 #fcfcfc
#000000 #000000;
#X obj 991 164 bng 15 250 50 0 empty empty empty 17 7 0 10 #fcfcfc
#000000 #000000;
#X obj 1054 166 bng 15 250 50 0 empty empty empty 17 7 0 10 #fcfcfc
#000000 #000000;
#X obj 1021 165 bng 15 250 50 0 empty empty empty 17 7 0 10 #fcfcfc
#000000 #000000;
#X msg 897 215 1;
#X obj 898 246 bng 15 250 50 0 empty empty empty 17 7 0 10 #fcfcfc
#000000 #000000;
#X obj 899 283 del 500;
#X obj 898 317 bng 15 250 50 0 empty empty empty 17 7 0 10 #fcfcfc
#000000 #000000;
#X msg 896 348 0;
#X msg 963 215 1;
#X obj 964 246 bng 15 250 50 0 empty empty empty 17 7 0 10 #fcfcfc
#000000 #000000;
#X obj 965 283 del 500;
#X obj 964 317 bng 15 250 50 0 empty empty empty 17 7 0 10 #fcfcfc
#000000 #000000;
#X msg 962 348 0;
#X msg 1030 217 1;
#X obj 1031 248 bng 15 250 50 0 empty empty empty 17 7 0 10 #fcfcfc
#000000 #000000;
#X obj 1032 285 del 500;
#X obj 1031 319 bng 15 250 50 0 empty empty empty 17 7 0 10 #fcfcfc
#000000 #000000;
#X msg 1029 350 0;
#X msg 1097 219 1;
#X obj 1098 250 bng 15 250 50 0 empty empty empty 17 7 0 10 #fcfcfc
#000000 #000000;
#X obj 1099 287 del 500;
#X obj 1098 321 bng 15 250 50 0 empty empty empty 17 7 0 10 #fcfcfc
#000000 #000000;
#X msg 1096 352 0;
#X obj 956 121 route 36 37 38 39;
#X obj 582 83 mknob 25 100 100 500 0 0 empty empty empty -2 -6 0 8
#fcfcfc #000000 #000000 8700 1;
#X obj 623 85 mknob 25 100 100 500 0 0 empty empty empty -2 -6 0 8
#fcfcfc #000000 #000000 2400 1;
#X obj 662 87 mknob 25 100 100 500 0 0 empty empty empty -2 -6 0 8
#fcfcfc #000000 #000000 3800 1;
#X obj 701 86 mknob 25 100 100 500 0 0 empty empty empty -2 -6 0 8
#fcfcfc #000000 #000000 6800 1;
#X obj 543 233 phasor~;
#X obj 612 230 phasor~;
#X obj 675 230 phasor~;
#X obj 747 229 phasor~;
#X connect 0 0 5 0;
#X connect 1 0 2 0;
#X connect 1 0 45 0;
#X connect 2 0 1 1;
#X connect 3 0 4 0;
#X connect 5 0 1 0;
#X connect 6 0 43 0;
#X connect 7 0 25 0;
#X connect 8 0 9 0;
#X connect 9 0 10 0;
#X connect 10 0 6 0;
#X connect 13 0 50 0;
#X connect 14 0 46 0;
#X connect 15 0 49 0;
#X connect 16 0 66 0;
#X connect 17 0 21 0;
#X connect 18 0 67 0;
#X connect 19 0 47 0;
#X connect 20 0 48 0;
#X connect 21 0 53 0;
#X connect 21 0 52 0;
#X connect 23 0 22 0;
#X connect 23 0 22 1;
#X connect 24 0 23 1;
#X connect 25 0 13 0;
#X connect 25 1 14 0;
#X connect 25 2 16 0;
#X connect 25 3 15 0;
#X connect 25 4 17 0;
#X connect 25 5 18 0;
#X connect 25 6 19 0;
#X connect 25 7 20 0;
#X connect 26 0 9 1;
#X connect 27 0 43 1;
#X connect 28 0 30 0;
#X connect 29 0 51 0;
#X connect 30 0 29 0;
#X connect 32 0 31 0;
#X connect 32 0 31 1;
#X connect 33 0 32 1;
#X connect 35 0 34 0;
#X connect 35 0 34 1;
#X connect 36 0 35 1;
#X connect 38 0 37 0;
#X connect 38 0 37 1;
#X connect 39 0 38 1;
#X connect 41 0 40 0;
#X connect 41 0 40 1;
#X connect 42 0 41 1;
#X connect 43 0 7 0;
#X connect 44 0 30 1;
#X connect 45 0 3 0;
#X connect 46 0 53 0;
#X connect 46 0 52 0;
#X connect 47 0 53 0;
#X connect 47 0 52 0;
#X connect 48 0 53 0;
#X connect 48 0 52 0;
#X connect 49 0 53 0;
#X connect 49 0 52 0;
#X connect 50 0 53 0;
#X connect 50 0 52 0;
#X connect 51 0 27 0;
#X connect 52 0 23 0;
#X connect 53 0 55 0;
#X connect 55 0 54 0;
#X connect 55 0 54 1;
#X connect 56 0 55 1;
#X connect 57 0 64 0;
#X connect 58 0 65 0;
#X connect 59 0 64 1;
#X connect 60 0 61 0;
#X connect 61 0 56 0;
#X connect 62 0 24 0;
#X connect 63 0 62 0;
#X connect 64 0 58 0;
#X connect 65 0 60 0;
#X connect 65 0 63 0;
#X connect 66 0 53 0;
#X connect 66 0 52 0;
#X connect 67 0 53 0;
#X connect 67 0 52 0;
#X connect 68 0 70 0;
#X connect 68 2 71 0;
#X connect 70 0 100 0;
#X connect 72 0 105 0;
#X connect 73 0 106 0;
#X connect 74 0 107 0;
#X connect 75 0 108 0;
#X connect 76 0 80 0;
#X connect 77 0 85 0;
#X connect 78 0 95 0;
#X connect 79 0 90 0;
#X connect 80 0 81 0;
#X connect 81 0 82 0;
#X connect 81 0 33 0;
#X connect 82 0 83 0;
#X connect 83 0 84 0;
#X connect 84 0 33 0;
#X connect 85 0 86 0;
#X connect 86 0 87 0;
#X connect 86 0 36 0;
#X connect 87 0 88 0;
#X connect 88 0 89 0;
#X connect 89 0 36 0;
#X connect 90 0 91 0;
#X connect 91 0 92 0;
#X connect 91 0 39 0;
#X connect 92 0 93 0;
#X connect 93 0 94 0;
#X connect 94 0 39 0;
#X connect 95 0 96 0;
#X connect 96 0 97 0;
#X connect 96 0 42 0;
#X connect 97 0 98 0;
#X connect 98 0 99 0;
#X connect 99 0 42 0;
#X connect 100 0 76 0;
#X connect 100 1 77 0;
#X connect 100 2 79 0;
#X connect 100 3 78 0;
#X connect 105 0 32 0;
#X connect 106 0 35 0;
#X connect 107 0 38 0;
#X connect 108 0 41 0;
