#N canvas 261 189 607 367 12;
#X obj 188 84 noise~;
#X obj 187 205 dac~;
#X obj 188 118 *~;
#X obj 264 78 bng 15 250 50 0 empty empty empty 17 7 0 10 -262144 -1
-1;
#X obj 264 101 ead~ 50 10;
#X obj 264 29 tgl 15 0 empty empty empty 17 7 0 10 -262144 -1 -1 1
1;
#X obj 375 215 dac~;
#X obj 376 128 *~;
#X obj 452 88 bng 15 250 50 0 empty empty empty 17 7 0 10 -262144 -1
-1;
#X floatatom 456 24 5 0 0 0 - - -;
#X floatatom 504 24 5 0 0 0 - - -;
#X floatatom 551 25 5 0 0 0 - - -;
#X obj 456 2 bng 15 250 50 0 empty empty empty 17 7 0 10 -262144 -1
-1;
#X obj 504 1 bng 15 250 50 0 empty empty empty 17 7 0 10 -262144 -1
-1;
#X obj 551 1 bng 15 250 50 0 empty empty empty 17 7 0 10 -262144 -1
-1;
#X obj 361 92 phasor~ 100;
#X obj 452 111 ead~ 10 10;
#X obj 452 62 metro 500;
#X obj 264 52 metro 1000;
#X connect 0 0 2 0;
#X connect 2 0 1 0;
#X connect 3 0 4 0;
#X connect 4 0 2 1;
#X connect 5 0 17 0;
#X connect 5 0 18 0;
#X connect 7 0 6 0;
#X connect 8 0 16 0;
#X connect 9 0 17 1;
#X connect 10 0 17 1;
#X connect 11 0 17 1;
#X connect 12 0 9 0;
#X connect 13 0 10 0;
#X connect 14 0 11 0;
#X connect 15 0 7 0;
#X connect 16 0 7 1;
#X connect 17 0 8 0;
#X connect 18 0 3 0;
