#N canvas 0 23 1202 746 12;
#X declare -lib markex;
#X declare -lib moonlib;
#X text 316 32 alt + 126 : ~;
#X obj 39 102 send;
#X obj 91 100 receive;
#X obj 39 128 send~;
#X obj 91 127 receive~;
#X text 36 73 objetos utiles para organizacion del patch:;
#X text 33 152 subpatches y abstracciones;
#X text 35 170 comentarios ctrl 5;
#X text 36 48 pd-tutorial.com;
#X text 37 34 datita;
#X text 497 37 datos;
#X obj 183 102 sig~;
#X text 196 20 objetos y modos audio-control edicion-accion;
#X obj 26 328 osc~ 440;
#X obj 24 431 dac~;
#X obj 24 399 *~;
#X obj 53 388 tgl 15 0 empty empty empty 17 7 0 10 -262144 -1 -1 0
1;
#X obj 158 465 hsl 128 15 0 1 0 0 empty empty empty -2 -8 0 10 -262144
-1 -1 0 1;
#X msg 157 423 1;
#X msg 200 422 0;
#X obj 202 311 tgl 15 0 empty empty empty 17 7 0 10 -262144 -1 -1 0
1;
#X obj 202 358 bng 15 250 50 0 empty empty empty 17 7 0 10 -262144
-1 -1;
#X obj 202 334 metro 500;
#X obj 202 401 bng 15 250 50 0 empty empty empty 17 7 0 10 -262144
-1 -1;
#X obj 262 403 bng 15 250 50 0 empty empty empty 17 7 0 10 -262144
-1 -1;
#X floatatom 262 283 5 0 0 0 - - -;
#X text 740 289 simple fm control;
#X obj 750 356 mtof~;
#X floatatom 750 329 5 0 0 0 - - -;
#X text 744 312 portadora f;
#X text 948 354 profundidad de modulacion en Hz;
#X floatatom 953 387 5 0 0 0 - - -;
#X obj 871 374 osc~;
#X floatatom 871 331 5 0 0 0 - - -;
#X text 864 313 moduladora f;
#X obj 750 424 +~;
#X obj 871 405 *~;
#X obj 750 457 osc~;
#X obj 746 556 dac~;
#X obj 748 524 *~;
#X obj 777 513 tgl 15 0 empty empty empty 17 7 0 10 -262144 -1 -1 0
1;
#X text 16 300 simple control amplitud;
#X text 394 295 control de ampplitud w osc;
#X obj 404 330 hsl 128 15 0 127 0 0 empty empty empty -2 -8 0 10 -262144
-1 -1 6200 1;
#X obj 478 380 hsl 128 15 -100 100 0 0 empty empty empty -2 -8 0 10
-262144 -1 -1 9600 1;
#X obj 400 489 dac~;
#X obj 432 442 tgl 15 0 empty empty empty 17 7 0 10 -262144 -1 -1 0
1;
#X obj 475 406 mtof~;
#X obj 401 431 *~;
#X obj 475 438 phasor~;
#X obj 400 392 osc~ 440;
#X obj 401 350 mtof~;
#X obj 25 364 *~ 0.5;
#X obj 400 461 *~ 0.5;
#X obj 749 489 *~ 0.8;
#X obj 852 462 *~;
#X text 1016 438 profundidad de modulacion en Hz;
#X floatatom 1021 471 5 0 0 0 - - -;
#X obj 939 458 osc~;
#X floatatom 939 415 5 0 0 0 - - -;
#X obj 939 489 *~;
#X obj 11 504 declare -lib markex;
#X obj 202 375 markex/alternate;
#X obj 520 131 s hola;
#X obj 577 95 r hola;
#X obj 519 99 bng 15 250 50 0 empty empty empty 17 7 0 10 -262144 -1
-1;
#X obj 577 134 bng 15 250 50 0 empty empty empty 17 7 0 10 -262144
-1 -1;
#X msg 500 493 0;
#X obj 38 3 declare -lib moonlib;
#X msg 554 473 init;
#X obj 279 230 mknob 25 100 0 100 0 0 empty empty empty -2 -6 0 8 -262144
-1 -1 0 1;
#X msg 299 177 2.02;
#X msg 311 210 0;
#X msg 325 245 6.06;
#X msg 242 197 4.04;
#X obj 62 289 * 100;
#X obj 74 255 mknob 25 100 0 100 0 0 empty empty empty -2 -6 0 8 -262144
-1 -1 400 1;
#X msg 94 202 2.02;
#X msg 106 235 0;
#X msg 120 270 6.06;
#X msg 37 222 4.04;
#X obj 561 584 unsig~;
#X obj 562 610 * 100;
#X text 567 634 jeje;
#X connect 13 0 52 0;
#X connect 15 0 14 0;
#X connect 15 0 14 1;
#X connect 16 0 15 1;
#X connect 17 0 52 1;
#X connect 18 0 17 0;
#X connect 19 0 17 0;
#X connect 20 0 22 0;
#X connect 21 0 62 0;
#X connect 22 0 21 0;
#X connect 23 0 18 0;
#X connect 24 0 19 0;
#X connect 25 0 22 1;
#X connect 27 0 35 0;
#X connect 28 0 27 0;
#X connect 31 0 36 1;
#X connect 32 0 36 0;
#X connect 33 0 32 0;
#X connect 35 0 37 0;
#X connect 36 0 55 0;
#X connect 37 0 54 0;
#X connect 39 0 38 0;
#X connect 39 0 38 1;
#X connect 40 0 39 1;
#X connect 43 0 51 0;
#X connect 44 0 47 0;
#X connect 46 0 53 1;
#X connect 47 0 49 0;
#X connect 48 0 53 0;
#X connect 49 0 48 1;
#X connect 49 0 81 0;
#X connect 50 0 48 0;
#X connect 51 0 50 0;
#X connect 52 0 15 0;
#X connect 53 0 45 0;
#X connect 53 0 45 1;
#X connect 54 0 39 0;
#X connect 55 0 35 1;
#X connect 57 0 60 1;
#X connect 58 0 60 0;
#X connect 59 0 58 0;
#X connect 60 0 55 1;
#X connect 62 0 23 0;
#X connect 62 1 24 0;
#X connect 64 0 66 0;
#X connect 65 0 63 0;
#X connect 67 0 46 0;
#X connect 69 0 67 0;
#X connect 70 0 25 0;
#X connect 71 0 70 0;
#X connect 72 0 70 0;
#X connect 73 0 70 0;
#X connect 74 0 70 0;
#X connect 75 0 13 0;
#X connect 76 0 75 0;
#X connect 77 0 76 0;
#X connect 78 0 76 0;
#X connect 79 0 76 0;
#X connect 80 0 76 0;
#X connect 81 0 82 0;
