#N canvas 43 23 1169 755 12;
#X declare -lib iemimage;
#X declare - lib moonlib;
#X obj 22 29 declare -lib iemimage;
#X obj 38 639 dac~;
#X obj 133 706 bng 15 250 50 0 empty graficar empty 17 7 0 10 -262144
-1 -1;
#X text 155 704 graficar;
#X floatatom 42 471 5 0 100 0 - - -;
#X text 82 494 reemplazo frecuencia;
#X text 150 524 multiplicador amp;
#X text -1 721 osciloscopio;
#X obj 234 673 tgl 15 0 empty empty empty 17 7 0 10 -262144 -1 -1 0
1;
#X obj 234 727 bng 15 250 50 0 graficar empty empty 17 7 0 10 -262144
-1 -1;
#X obj 85 586 tgl 15 0 empty empty empty 17 7 0 10 -262144 -1 -1 0
1;
#X text 108 618 activar la salida (unmute);
#X obj 102 672 r~ salidaseno;
#X text 66 441 sinusoidal (simple);
#X text 227 651 objeto temporal metro;
#X obj 40 589 *~;
#X obj 148 579 s~ salidaseno;
#X obj 41 551 *~ 0.4;
#X obj 425 550 phasor~;
#X floatatom 425 494 5 0 0 0 - - -;
#X obj 425 521 sig~;
#X text 420 448 sierra;
#X obj 422 628 *~;
#X obj 461 625 tgl 15 0 empty empty empty 17 7 0 10 -262144 -1 -1 0
1;
#X obj 422 657 dac~;
#X text 479 624 unmute;
#X obj 500 580 bng 15 250 50 0 empty graficar2 empty 17 7 0 10 -262144
-1 -1;
#X text 526 575 graficar;
#X obj 500 602 tabwrite~ osci;
#X obj 234 700 metro 50;
#X obj 623 602 tgl 15 0 empty empty empty 17 7 0 10 -262144 -1 -1 0
1;
#X obj 623 656 bng 15 250 50 0 graficar2 empty empty 17 7 0 10 -262144
-1 -1;
#X obj 623 629 metro 50;
#X obj 425 603 *~ 0.5;
#X obj 436 576 *~ 0.6;
#X obj 17 4 declare - lib moonlib;
#X obj 426 465 mknob 25 100 0 127 0 0 empty empty empty -2 -6 0 8 -262144
-1 -1 0 1;
#X obj 43 418 mknob 25 100 0 127 0 0 empty empty empty -2 -6 0 8 -262144
-1 -1 1800 1;
#X text 694 435 cuadrada;
#X obj 691 544 phasor~;
#X obj 763 543 phasor~;
#X obj 763 515 * -1;
#X obj 732 594 +~;
#X msg 828 512 0;
#X msg 871 511 0.5;
#X obj 856 477 bng 15 250 50 0 empty empty empty 17 7 0 10 -262144
-1 -1;
#X obj 732 621 -~ 1;
#X obj 732 678 *~;
#X obj 771 675 tgl 15 0 empty empty empty 17 7 0 10 -262144 -1 -1 0
1;
#X obj 732 707 dac~;
#X floatatom 691 506 5 0 0 0 - - -;
#X obj 804 624 bng 15 250 50 0 empty graficar3 empty 17 7 0 10 -262144
-1 -1;
#X text 822 624 graficar;
#X text 787 678 unmute;
#X obj 1043 512 phasor~;
#X obj 1115 511 phasor~;
#X obj 1117 575 -~ 1;
#X obj 1044 608 clip~ 0 1;
#X obj 1118 606 clip~ 0 1;
#X obj 1097 637 +~;
#X obj 1099 715 *~;
#X obj 1138 712 tgl 15 0 empty empty empty 17 7 0 10 -262144 -1 -1
0 1;
#X obj 1098 750 dac~;
#X text 695 488 ff;
#X text 999 423 triangular;
#X floatatom 1042 472 5 0 0 0 - - -;
#X text 1046 454 ff;
#X obj 1111 490 * -1;
#X msg 1164 478 0;
#X obj 1190 708 bng 15 250 50 0 empty graficar4 empty 17 7 0 10 -262144
-1 -1;
#X text 1212 706 graficar;
#X obj 1043 548 *~ 2;
#X obj 1116 545 *~ 2;
#X obj 1044 578 -~ 1;
#X text 787 461 para sincronizaer la fase;
#X obj 831 717 s~ square;
#X obj 1160 688 *~ 0.7;
#X obj 731 647 *~ 0.5;
#X obj 1100 688 *~ 0.5;
#X obj 692 461 mknob 25 100 0 5000 0 0 empty empty empty -2 -6 0 8
-262144 -1 -1 0 1;
#X obj 1025 441 mknob 25 100 0 5000 0 0 empty empty empty -2 -6 0 8
-262144 -1 -1 0 1;
#X obj 802 641 tabwrite~ osci;
#X obj 917 603 tgl 15 0 empty empty empty 17 7 0 10 -262144 -1 -1 0
1;
#X obj 917 657 bng 15 250 50 0 graficar3 empty empty 17 7 0 10 -262144
-1 -1;
#X obj 917 630 metro 50;
#X obj 1209 598 tgl 15 0 empty empty empty 17 7 0 10 -262144 -1 -1
0 1;
#X obj 1209 652 bng 15 250 50 0 graficar4 empty empty 17 7 0 10 -262144
-1 -1;
#X obj 1209 625 metro 50;
#X obj 1160 731 tabwrite~ osci;
#X obj 201 70 iem_image /Users/mica/Desktop/puredata/territorio\ \ plateral/basics\ +\ osciladores\ +\ control/oscilador1.gif
0 0 empty empty;
#N canvas 0 50 450 250 (subpatch) 0;
#X array l 1000 float 0;
#X coords 0 1 999 -1 280 250 2 0 0;
#X restore 291 126 graph;
#X obj 152 420 adc~;
#X obj 49 254 iem_image 0 0 0 empty empty;
#X obj 325 144 iem_image 0 0 0 empty empty;
#X obj 150 542 *~ 2;
#X obj 101 728 tabwrite~ l;
#X obj 42 498 * 10;
#X obj 42 523 osc~;
#X connect 2 0 95 0;
#X connect 4 0 96 0;
#X connect 8 0 29 0;
#X connect 10 0 15 1;
#X connect 12 0 95 0;
#X connect 15 0 1 0;
#X connect 15 0 1 1;
#X connect 15 0 94 0;
#X connect 17 0 15 0;
#X connect 18 0 33 0;
#X connect 18 0 34 0;
#X connect 19 0 20 0;
#X connect 20 0 18 0;
#X connect 22 0 24 0;
#X connect 22 0 24 1;
#X connect 23 0 22 1;
#X connect 26 0 28 0;
#X connect 29 0 9 0;
#X connect 30 0 32 0;
#X connect 32 0 31 0;
#X connect 33 0 22 0;
#X connect 34 0 28 0;
#X connect 36 0 19 0;
#X connect 37 0 4 0;
#X connect 39 0 42 0;
#X connect 40 0 42 1;
#X connect 41 0 40 0;
#X connect 42 0 46 0;
#X connect 43 0 39 1;
#X connect 44 0 40 1;
#X connect 45 0 44 0;
#X connect 45 0 43 0;
#X connect 46 0 77 0;
#X connect 46 0 81 0;
#X connect 47 0 49 0;
#X connect 47 0 49 1;
#X connect 48 0 47 1;
#X connect 50 0 39 0;
#X connect 50 0 41 0;
#X connect 51 0 81 0;
#X connect 54 0 71 0;
#X connect 55 0 72 0;
#X connect 56 0 58 0;
#X connect 57 0 59 0;
#X connect 58 0 59 1;
#X connect 59 0 76 0;
#X connect 59 0 78 0;
#X connect 60 0 62 0;
#X connect 60 0 62 1;
#X connect 61 0 60 1;
#X connect 65 0 54 0;
#X connect 65 0 67 0;
#X connect 67 0 55 0;
#X connect 68 0 55 1;
#X connect 68 0 54 1;
#X connect 69 0 88 0;
#X connect 71 0 73 0;
#X connect 72 0 56 0;
#X connect 73 0 57 0;
#X connect 76 0 88 0;
#X connect 77 0 47 0;
#X connect 77 0 75 0;
#X connect 78 0 60 0;
#X connect 79 0 50 0;
#X connect 80 0 65 0;
#X connect 82 0 84 0;
#X connect 84 0 83 0;
#X connect 85 0 87 0;
#X connect 87 0 86 0;
#X connect 94 0 16 0;
#X connect 96 0 97 0;
#X connect 97 0 17 0;
