#N canvas 397 111 723 541 10;
#X declare -lib mknob;
#X obj -6 -38 bng 15 250 50 0 empty empty empty 17 7 0 10 -262144 -1
-1;
#X obj -79 -46 tgl 15 0 empty empty empty 17 7 0 10 -262144 -1 -1 0
1;
#X msg -29 22 setup_wiringPi;
#X obj -80 103 unpack f f f f f f f f;
#X obj -96 158 vsl 15 128 0 1023 0 0 valoruno empty empty 0 -9 0 10
-262144 -1 -1 0 1;
#X obj -70 158 vsl 15 128 0 1023 0 0 valordos empty empty 0 -9 0 10
-262144 -1 -1 0 1;
#X obj -44 158 vsl 15 128 0 1023 0 0 valortres empty empty 0 -9 0 10
-262144 -1 -1 0 1;
#X obj -18 158 vsl 15 128 0 1023 0 0 valorcuatro empty empty 0 -9 0
10 -262144 -1 -1 0 1;
#X obj 7 158 vsl 15 128 0 1023 0 0 valorcinco empty empty 0 -9 0 10
-262144 -1 -1 0 1;
#X obj 33 158 vsl 15 128 0 1023 0 0 valorseis empty empty 0 -9 0 10
-262144 -1 -1 0 1;
#X obj 59 158 vsl 15 128 0 1023 0 0 valorsiete empty empty 0 -9 0 10
-262144 -1 -1 0 1;
#X obj 85 158 vsl 15 128 0 1023 0 0 valorocho empty empty 0 -9 0 10
-262144 -1 -1 0 1;
#X obj -80 75 wiringPi_mcp3008 0 8;
#X text 82 -8 2 once creation args in main object are specified \,
click on this message to enable the adcs., f 28;
#X text -134 375 Jaime Oliver La Rosa - 2014 (la.rosa@nyu.edu);
#X text 118 72 1 args are (spi_port \, No. of ADCs to read). Once you
run setup_wiringPi you can't change these numbers or it'll crash when
you run the setup message again. *, f 27;
#X text 149 178 0 For this object to work you must have wiringPi installed
in your pi \, then run "sudo gpio load spi"., f 26;
#X text 20 -39 3 bang to outout a list of values;
#X text -100 319 This object uses the wiringPi library. For more information
see: http://www.wiringpi.com, f 38;
#X obj -80 -25 metro 5;
#X obj 165 254 declare -lib mknob;
#X obj 164 275 mknob 40 100 0 1023 0 0 empty valoruno empty -2 -6 0
8 -262144 -1 -1 0 1;
#X obj 210 276 mknob 40 100 0 1023 0 0 empty valordos empty -2 -6 0
8 -262144 -1 -1 0 1;
#X obj 480 280 mknob 40 100 0 1023 0 0 empty valorocho empty -2 -6
0 8 -262144 -1 -1 0 1;
#X obj 256 278 mknob 40 100 0 1023 0 0 empty valortres empty -2 -6
0 8 -262144 -1 -1 0 1;
#X obj 300 278 mknob 40 100 0 1023 0 0 empty valorcuatro empty -2 -6
0 8 -262144 -1 -1 0 1;
#X obj 435 280 mknob 40 100 0 1023 0 0 empty valorsiete empty -2 -6
0 8 -262144 -1 -1 0 1;
#X obj 390 280 mknob 40 100 0 1023 0 0 empty valorseis empty -2 -6
0 8 -262144 -1 -1 0 1;
#X obj 345 280 mknob 40 100 0 1023 0 0 empty valorcinco empty -2 -6
0 8 -262144 -1 -1 0 1;
#X connect 1 0 19 0;
#X connect 3 0 4 0;
#X connect 3 1 5 0;
#X connect 3 2 6 0;
#X connect 3 3 7 0;
#X connect 3 4 8 0;
#X connect 3 5 9 0;
#X connect 3 6 10 0;
#X connect 3 7 11 0;
