#N canvas 428 0 823 676 12;
#X declare -lib iemimage;
#X declare -lib iemgui;
#X declare -lib iemlib;
#X obj 8 -61 declare -lib iemimage;
#X obj 9 -38 declare -lib iemgui;
#X obj 8 -16 declare -lib iemlib;
#X obj 4 8 iem_image 0 0 0 empty empty;
#X obj 166 -50 iem_image 0 0 0 0 0;
#X obj 225 158 iem_image denti.gif
0 0 empty empty;
#X obj 289 276 bng 20 250 50 0 nota-5 empty empty 17 7 0 10 -262144
-262144 -1;
#X obj 329 274 bng 20 250 50 0 nota-6 empty empty 17 7 0 10 -262144
-262144 -1;
#X obj 386 281 bng 20 250 50 0 nota-7 empty empty 17 7 0 10 -262144
-262144 -262144;
#X obj 464 285 bng 20 250 50 0 nota-8 empty empty 17 7 0 10 -262144
-262144 -262144;
#X obj 527 277 bng 20 250 50 0 nota-9 empty empty 17 7 0 10 -262144
-262144 -262144;
#X obj 399 341 bng 20 250 50 0 nota-10 empty empty 17 7 0 10 -262144
-262144 -1;
#X obj 446 343 bng 20 250 50 0 nota-11 empty empty 17 7 0 10 -262144
-262144 -1;
#X obj 492 341 bng 20 250 50 0 nota-11 empty empty 17 7 0 10 -262144
-262144 -1;
#X obj 354 337 bng 20 250 50 0 nota-11 empty empty 17 7 0 10 -262144
-262144 -1;
#X obj 314 330 bng 20 250 50 0 nota-11 empty empty 17 7 0 10 -262144
-262144 -1;
#X obj 414 186 bng 10 250 50 0 rec empty empty 17 7 0 10 -262144 -1
-1;
#X obj 346 135 bng 30 250 50 0 down empty empty 17 7 0 10 -262144 -1
-1;
#X obj 404 121 nbx 5 14 -1e+037 1e+037 0 0 duracion-sample empty empty
0 -8 0 10 -262144 -1 -1 0 256;
#X obj 477 134 bng 30 250 50 0 up empty empty 17 7 0 10 -262144 -1
-1;
#X obj 209 50 hsl 400 15 0 1 0 0 empty slide empty -2 -8 0 10 -262144
-1 -1 0 1;
#X text 415 165 rec;
#X text 335 114 down;
#X text 480 108 up;
#X text 402 135 duracion;
#X text 407 149 sample;
#X obj 428 185 bng 15 250 50 0 empty bang-rec empty 17 7 0 10 -258699
-258699 -1;
#X text 453 161 _____;
#X text 346 168 _____;
#X text 341 164 _____;
#X text 458 166 _____;
#X obj 315 69 hsl 200 15 0 1 0 0 empty slide empty -2 -8 0 10 -262144
-1 -1 0 1;
#X obj 370 94 hsl 100 15 0 1 0 0 empty slide empty -2 -8 0 10 -262144
-1 -1 0 1;
#X obj 407 103 hsl 50 10 0 1 0 0 empty slide empty -2 -8 0 10 -262144
-1 -1 0 1;
