#N canvas 0 0 1920 997 10;
#X declare -lib iem_image;
#X obj 324 -461 iem_image C:/Users/delfi/Downloads/microsampler.gif
0 0 empty empty;
#X obj 272 226 adc~;
#X obj 272 339 tabwrite~ sample;
#X obj 511 422 *~;
#X obj 511 461 tabread4~ sample;
#X msg 142 479 resize \$1;
#X obj 143 449 nbx 5 14 -1e+037 1e+037 0 0 empty empty empty 0 -8 0
10 -262144 -1 -1 0 256;
#X obj 143 342 * 44100;
#X obj 141 276 nbx 5 14 -1e+037 1e+037 0 0 empty empty empty 0 -8 0
10 -262144 -1 -1 0 256;
#X obj 142 513 s sample;
#X obj 494 575 output~;
#X obj 512 390 phasor~ 1;
#X obj 143 370 s duracion;
#X obj 143 416 r duracion;
#X obj 536 410 r duracion;
#X obj 158 302 s segundos;
#X obj 527 296 r segundos;
#X obj 511 320 expr 1 / $f1;
#X msg 330 280 start;
#X obj 639 307 hsl 200 10 0 1 0 0 slide empty empty -2 -8 0 10 -262144
-1 -1 0 1;
#X obj 510 509 *~;
#X obj 511 544 hip~ 5;
#X obj 545 494 line~;
#X msg 690 462 \$1 20;
#X floatatom 690 432 5 0 0 0 - - -;
#X obj 641 366 t b f;
#X obj 625 333 hsl 128 15 0 1 0 0 empty empty empty -2 -8 0 10 -262144
-1 -1 0 1;
#X obj 640 415 *;
#X floatatom 641 389 5 0 0 0 - - -;
#X msg 343 303 stop;
#X obj 334 242 bng 15 250 50 0 empty rec empty 17 7 0 10 -262144 -1
-1;
#X obj 626 284 unsig~ 1;
#X obj 965 291 r playback-speed-notamidi;
#X obj 1050 396 r nota;
#X obj 1050 423 bng 15 250 50 0 empty empty empty 17 7 0 10 -262144
-1 -1;
#X obj 1011 348 mousestate;
#X obj 1011 376 sel 0;
#X obj 1013 413 bng 15 250 50 0 empty empty empty 17 7 0 10 -262144
-1 -1;
#X msg 1013 437 0;
#X msg 1050 448 1;
#X obj 427 312 s sample;
#X msg 426 282 normalize 1.5;
#X obj 426 257 del 3001;
#X msg 595 205 13;
#X obj 569 258 s bang-rec;
#X obj 432 230 tgl 15 0 empty empty empty 17 7 0 10 -262144 -1 -1 0
1;
#X obj 595 168 bng 15 250 50 0 empty empty empty 17 7 0 10 -262144
-1 -1;
#X obj 433 188 metrum 500;
#X msg 475 228 0;
#X msg 584 232 color 0 \$1 \$1;
#X text 117 255 duracion del sample;
#X obj 126 216 import iem_image;
#X obj 141 182 iem_image 0 0 0 empty empty;
#X obj 693 51 bng 15 250 50 0 empty empty empty 17 7 0 10 -262144 -262144
-262144;
#X obj 728 51 bng 15 250 50 0 empty empty empty 17 7 0 10 -262144 -1
-1;
#X obj 765 51 bng 15 250 50 0 empty empty empty 17 7 0 10 -262144 -1
-1;
#X obj 802 51 bng 15 250 50 0 empty empty empty 17 7 0 10 -262144 -1
-1;
#X obj 838 51 bng 15 250 50 0 empty empty empty 17 7 0 10 -262144 -1
-1;
#X obj 875 52 bng 15 250 50 0 empty empty empty 17 7 0 10 -262144 -1
-1;
#X obj 911 51 bng 15 250 50 0 empty empty empty 17 7 0 10 -262144 -1
-1;
#X connect 1 0 2 0;
#X connect 3 0 4 0;
#X connect 4 0 20 0;
#X connect 5 0 9 0;
#X connect 6 0 5 0;
#X connect 7 0 12 0;
#X connect 8 0 7 0;
#X connect 8 0 15 0;
#X connect 11 0 3 0;
#X connect 11 0 31 0;
#X connect 13 0 6 0;
#X connect 14 0 3 1;
#X connect 16 0 17 0;
#X connect 17 0 11 0;
#X connect 18 0 2 0;
#X connect 20 0 21 0;
#X connect 21 0 10 0;
#X connect 21 0 10 1;
#X connect 22 0 20 1;
#X connect 23 0 22 0;
#X connect 24 0 23 0;
#X connect 25 0 28 0;
#X connect 25 1 27 1;
#X connect 26 0 25 0;
#X connect 27 0 11 0;
#X connect 28 0 27 0;
#X connect 29 0 2 0;
#X connect 30 0 18 0;
#X connect 30 0 42 0;
#X connect 30 0 45 0;
#X connect 31 0 19 0;
#X connect 32 0 11 0;
#X connect 33 0 34 0;
#X connect 34 0 39 0;
#X connect 35 0 36 0;
#X connect 36 0 37 0;
#X connect 37 0 38 0;
#X connect 38 0 22 0;
#X connect 38 0 11 0;
#X connect 38 0 11 1;
#X connect 39 0 22 0;
#X connect 41 0 40 0;
#X connect 42 0 41 0;
#X connect 42 0 48 0;
#X connect 43 0 49 0;
#X connect 45 0 47 0;
#X connect 46 0 43 0;
#X connect 46 0 44 0;
#X connect 47 0 46 0;
#X connect 48 0 45 0;
#X connect 49 0 44 0;
