#N canvas 916 334 555 368 10;
#X obj -45 14 r nota;
#X floatatom -45 44 5 0 0 0 - - -;
#X obj -47 79 phasor~;
#X obj -35 115 delwrite~ buff 100;
#X obj 8 197 *~;
#X obj 27 167 tgl 15 0 empty empty empty 17 7 0 10 -262144 -1 -1 0
1;
#X text 23 152 original;
#X obj 2 260 output~;
#X obj 150 193 *~;
#X obj 8 226 *~;
#X obj 180 169 tgl 15 0 empty empty empty 17 7 0 10 -262144 -1 -1 0
1;
#X text 172 152 octava;
#X obj 144 153 +~;
#X obj 75 77 delread~ buff;
#X floatatom 74 47 5 0 0 0 - - -;
#X obj 160 48 vd~ buff;
#X obj 159 17 sig~;
#X obj 161 -17 + 1.451;
#X obj 158 -45 expr 500/$f1;
#X connect 0 0 1 0;
#X connect 1 0 2 0;
#X connect 1 0 18 0;
#X connect 2 0 3 0;
#X connect 2 0 4 0;
#X connect 4 0 9 0;
#X connect 5 0 4 1;
#X connect 8 0 9 0;
#X connect 9 0 7 0;
#X connect 9 0 7 1;
#X connect 10 0 8 1;
#X connect 12 0 8 0;
#X connect 13 0 12 0;
#X connect 14 0 13 0;
#X connect 15 0 12 1;
#X connect 16 0 15 0;
#X connect 17 0 16 0;
#X connect 18 0 17 0;
