#N canvas 503 23 777 685 10;
#X declare -lib else;
#X declare - lib numusk-audio;
#X obj -8358 189 mtof;
#X floatatom -8358 212 0 0 0 0 - - -;
#X floatatom -8356 75 5 0 0 0 - - -;
#X obj -8358 165 +;
#X obj -8302 135 t b f;
#X obj -8210 -37 + 12;
#X obj -8150 -46 + 24;
#X obj -8096 -46 + 48;
#X obj -8748 182 hradio 15 1 0 7 empty empty empty 0 -8 0 10 -262144
-1 -1 2;
#X floatatom -8747 207 5 0 0 0 - - -;
#X msg -8717 -55 up;
#X obj -8427 -37 - 48;
#X obj -8368 -36 - 24;
#X obj -8308 -37 - 12;
#X obj -8254 -37 - 0;
#X obj -8428 -62 sel 0 1 2 3 4 5;
#X obj -8709 -132 r up;
#X obj -8668 -131 r down;
#X obj -8665 -110 bng 15 250 50 0 empty empty empty 17 7 0 10 -262144
-1 -1;
#X obj -8710 -110 bng 15 250 50 0 empty empty empty 17 7 0 10 -262144
-1 -1;
#X obj -8315 80 r nota;
#X floatatom -8308 114 5 0 0 0 - - -;
#X obj -8345 258 *~;
#X obj -8346 235 osc~;
#X obj -8256 115 bng 15 250 50 0 empty empty empty 17 7 0 10 -262144
-1 -1;
#X obj -8282 21 s playback-octavador;
#X msg -8749 57 1;
#X msg -8783 56 0;
#X obj -8744 -88 t b b;
#X obj -8637 -91 t b b;
#X msg -8622 -65 down;
#X obj -8748 224 s valorcontador;
#X obj -8784 -8 r valorcontador;
#X obj -8784 23 sel 6;
#X msg -8567 56 1;
#X msg -8601 58 0;
#X obj -8604 -11 r valorcontador;
#X obj -8604 22 sel 0;
#X obj -8815 111 spigot;
#X obj -8632 116 spigot;
#X obj -8675 92 r bangdown;
#X obj -8849 89 r bangup;
#X obj -8634 -37 s bangdown;
#X obj -8741 -34 s bangup;
#X obj -8553 24 loadbang;
#X obj -8733 20 loadbang;
#X obj -8783 89 tgl 15 0 empty empty empty 17 7 0 10 -262144 -1 -1
1 1;
#X obj -8600 91 tgl 15 0 empty empty empty 17 7 0 10 -262144 -1 -1
1 1;
#X obj -8234 267 tgl 15 0 empty empty empty 17 7 0 10 -262144 -1 -1
1 1;
#X obj -8234 245 r activar-notas;
#X obj -8360 54 r playback-octavador;
#X obj -8427 -86 r valorcontador;
#X obj -8749 157 cyclone/counter 0 6;
#X obj -8291 293 *~;
#X obj 250 -116 declare -lib else;
#X obj 236 -137 declare - lib numusk-audio;
#X obj -8295 322 dac~;
#X obj -8245 153 ead~ 100 1000;
#X text -8257 129;
#X connect 0 0 1 0;
#X connect 1 0 23 0;
#X connect 2 0 3 0;
#X connect 3 0 0 0;
#X connect 4 0 3 0;
#X connect 4 1 3 1;
#X connect 5 0 25 0;
#X connect 6 0 25 0;
#X connect 7 0 25 0;
#X connect 8 0 9 0;
#X connect 9 0 31 0;
#X connect 10 0 43 0;
#X connect 11 0 25 0;
#X connect 12 0 25 0;
#X connect 13 0 25 0;
#X connect 14 0 25 0;
#X connect 15 0 11 0;
#X connect 15 1 12 0;
#X connect 15 2 13 0;
#X connect 15 3 14 0;
#X connect 15 4 5 0;
#X connect 15 5 6 0;
#X connect 15 6 7 0;
#X connect 16 0 19 0;
#X connect 17 0 18 0;
#X connect 18 0 29 0;
#X connect 19 0 28 0;
#X connect 20 0 21 0;
#X connect 20 0 24 0;
#X connect 21 0 4 0;
#X connect 22 0 53 0;
#X connect 23 0 22 0;
#X connect 24 0 57 0;
#X connect 26 0 46 0;
#X connect 27 0 46 0;
#X connect 28 0 43 0;
#X connect 28 1 10 0;
#X connect 29 0 42 0;
#X connect 29 1 30 0;
#X connect 30 0 42 0;
#X connect 32 0 33 0;
#X connect 33 0 27 0;
#X connect 33 1 26 0;
#X connect 34 0 47 0;
#X connect 35 0 47 0;
#X connect 36 0 37 0;
#X connect 37 0 35 0;
#X connect 37 1 34 0;
#X connect 38 0 52 0;
#X connect 39 0 52 0;
#X connect 40 0 39 0;
#X connect 41 0 38 0;
#X connect 44 0 34 0;
#X connect 45 0 26 0;
#X connect 46 0 38 1;
#X connect 47 0 39 1;
#X connect 48 0 53 1;
#X connect 49 0 48 0;
#X connect 50 0 2 0;
#X connect 51 0 15 0;
#X connect 52 0 8 0;
#X connect 53 0 56 0;
#X connect 53 0 56 1;
#X connect 57 0 22 1;
