#N canvas 162 81 1118 654 10;
#X obj -14 23 adc~;
#X obj -14 168 tabwrite~ sample;
#X obj -21 345 *~;
#X obj -21 384 tabread4~ sample;
#X msg -147 290 resize \$1;
#X obj -146 260 nbx 5 14 -1e+37 1e+37 0 0 empty empty empty 0 -8 0
10 #fcfcfc #000000 #000000 0 256;
#X obj -143 171 * 44100;
#X obj -146 121 nbx 5 14 -1e+37 1e+37 0 0 empty empty empty 0 -8 0
10 #fcfcfc #000000 #000000 0 256;
#X obj -147 324 s sample;
#X obj -20 313 phasor~ 1;
#X obj -143 199 s duracion;
#X obj -146 227 r duracion;
#X obj 4 333 r duracion;
#X obj -139 143 s segundos;
#X obj -5 219 r segundos;
#X obj -21 243 expr 1 / $f1;
#X msg 44 109 start;
#X obj -141 436 hsl 200 10 0 1 0 0 slide empty empty -2 -8 0 10 #fcfcfc
#000000 #000000 0 1;
#X obj 95 425 *~;
#X obj 98 460 hip~ 5;
#X obj 150 392 line~;
#X msg 150 367 \$1 20;
#X floatatom 150 343 5 0 0 0 - - - 0;
#X obj 77 235 t b f;
#X obj 81 207 hsl 128 15 0 1 0 0 empty empty empty -2 -8 0 10 #fcfcfc
#000000 #000000 0 1;
#X obj 77 281 *;
#X floatatom 77 258 5 0 0 0 - - - 0;
#X msg 57 132 stop;
#X obj 44 60 bng 15 250 50 0 empty rec empty 17 7 0 10 #fcfcfc #000000
#000000;
#X obj 164 281 r playback-speed-notamidi;
#X obj 425 298 r nota;
#X obj 425 325 bng 15 250 50 0 empty empty empty 17 7 0 10 #fcfcfc
#000000 #000000;
#X obj 385 260 mousestate;
#X obj 385 288 sel 0;
#X obj 387 325 bng 15 250 50 0 empty empty empty 17 7 0 10 #fcfcfc
#000000 #000000;
#X msg 382 354 0;
#X msg 438 357 1;
#X obj 242 116 s sample;
#X obj 368 86 s bang-rec;
#X obj 290 17 tgl 15 0 empty empty empty 17 7 0 10 #fcfcfc #000000
#000000 0 1;
#X obj 379 17 bng 15 250 50 0 empty empty empty 17 7 0 10 #fcfcfc #000000
#000000;
#X msg 211 93 0;
#X text -165 53 duracion del sample;
#X obj 310 -2 metro 500;
#X obj 99 187 r playback-octavador;
#X text 371 233 sector key/keyout;
#X text -14 260 lector;
#X text 400 17 sector color bang rec;
#X text -45 5 entrada de audio;
#X text 114 485 salida;
#X text 104 170 frecuencia de lectura;
#X obj -124 78 r duracion-sample;
#X obj 164 -6 * 1000;
#X obj 163 -26 r duracion-sample;
#X obj 223 55 del;
#X floatatom 163 41 5 0 0 0 - - - 0;
#X obj 163 14 + 1000;
#X msg 242 94 normalize 1;
#X msg 417 64 color 13 13;
#X msg 330 64 color 0 0;
#X obj 379 39 markex/alternate;
#X obj -144 408 iemlib/unsig~ 1;
#X obj 404 335 bng 15 250 50 0 empty empty empty 17 7 0 10 #fcfcfc
#000000 #000000;
#X floatatom 627 274 5 0 0 0 - - - 0;
#X floatatom 610 329 5 0 0 0 - - - 0;
#X obj 614 307 * 1000;
#X text 501 235 para dispararlo con el teclado;
#X obj -118 99 int;
#X obj 595 255 r segundos;
#X obj 578 348 del 100 1 msec;
#X text -144 274 redimensiona;
#X obj 49 87 s start;
#X obj 210 -7 r start;
#X obj 82 484 dac~;
#X connect 0 0 1 0;
#X connect 2 0 3 0;
#X connect 3 0 18 0;
#X connect 4 0 8 0;
#X connect 5 0 4 0;
#X connect 6 0 10 0;
#X connect 7 0 6 0;
#X connect 7 0 13 0;
#X connect 9 0 2 0;
#X connect 9 0 61 0;
#X connect 11 0 5 0;
#X connect 12 0 2 1;
#X connect 14 0 15 0;
#X connect 15 0 9 0;
#X connect 16 0 1 0;
#X connect 18 0 19 0;
#X connect 19 0 73 0;
#X connect 19 0 73 1;
#X connect 20 0 18 1;
#X connect 21 0 20 0;
#X connect 22 0 21 0;
#X connect 23 0 26 0;
#X connect 23 1 25 1;
#X connect 24 0 23 0;
#X connect 25 0 9 1;
#X connect 26 0 25 0;
#X connect 27 0 1 0;
#X connect 28 0 16 0;
#X connect 28 0 71 0;
#X connect 29 0 9 0;
#X connect 30 0 31 0;
#X connect 31 0 36 0;
#X connect 32 0 33 0;
#X connect 33 0 34 0;
#X connect 34 0 35 0;
#X connect 35 0 20 0;
#X connect 35 0 9 0;
#X connect 35 0 9 1;
#X connect 36 0 20 0;
#X connect 39 0 43 0;
#X connect 40 0 60 0;
#X connect 41 0 39 0;
#X connect 43 0 40 0;
#X connect 44 0 24 0;
#X connect 51 0 67 0;
#X connect 52 0 56 0;
#X connect 53 0 52 0;
#X connect 54 0 57 0;
#X connect 54 0 41 0;
#X connect 56 0 54 1;
#X connect 56 0 55 0;
#X connect 57 0 37 0;
#X connect 58 0 38 0;
#X connect 59 0 38 0;
#X connect 60 0 59 0;
#X connect 60 1 58 0;
#X connect 61 0 17 0;
#X connect 62 0 35 0;
#X connect 63 0 65 0;
#X connect 64 0 69 1;
#X connect 65 0 64 0;
#X connect 67 0 7 0;
#X connect 68 0 63 0;
#X connect 72 0 54 0;
#X connect 72 0 39 0;
