#N canvas 10 29 937 1001 12;
#X obj 118 57 inlet;
#X obj 65 498 line~;
#X obj 17 426 pack f f f, f 35;
#X obj 375 205 s \$0-START;
#X obj 257 281 s \$0-DUR;
#X obj 505 262 s \$0-END;
#X obj 138 389 r \$0-START;
#X obj 259 390 r \$0-END;
#X obj 17 388 r \$0-DUR;
#X obj 219 36 inlet;
#X obj 65 623 outlet~;
#X obj 65 560 tabread4~ sample;
#N canvas 961 17 937 1001 #test-notas 1;
#X obj 291 21 inlet;
#X obj 425 24 inlet;
#X obj 155 446 outlet;
#X obj 155 110 inlet;
#X obj 221 25 inlet;
#X floatatom 155 321 5 0 0 0 - - - 0;
#X obj 155 177 / 12;
#X obj 155 205 + 1;
#X obj 267 198 swap 1;
#X obj 268 222 /;
#X obj 267 169 + 1;
#X obj 221 139 moses 0;
#X obj 221 201 - 1;
#X obj 221 232 abs;
#X obj 155 361 *;
#X obj 155 296 expr 1000 * (abs($f2 - $f3)/RATE) / $f1;
#X connect 0 0 15 1;
#X connect 1 0 15 2;
#X connect 3 0 6 0;
#X connect 4 0 11 0;
#X connect 5 0 14 0;
#X connect 6 0 7 0;
#X connect 7 0 15 0;
#X connect 8 0 9 0;
#X connect 8 1 9 1;
#X connect 9 0 14 1;
#X connect 10 0 8 0;
#X connect 11 0 12 0;
#X connect 11 1 10 0;
#X connect 12 0 13 0;
#X connect 13 0 14 1;
#X connect 14 0 2 0;
#X connect 15 0 5 0;
#X restore 257 248 pd #test-notas;
#X f 19;
#X obj 343 93 expr NEW_LEN * $f1 \; NEW_LEN * $f2 \;;
#X obj 473 228 t f f;
#X obj 343 175 t f f;
#X msg 17 459 \$2 \, \$3 \$1;
#X obj 219 73 t a a;
#X obj 219 98 unpack f f f;
#X text 39 342 Tah mas clarito B);
#X text 38 307 TODO cuando DUR < 0 las "notas" mas altas salens mas
bajas (creo que lo arregle);
#X connect 0 0 12 0;
#X connect 1 0 11 0;
#X connect 2 0 16 0;
#X connect 6 0 2 1;
#X connect 7 0 2 2;
#X connect 8 0 2 0;
#X connect 9 0 17 0;
#X connect 11 0 10 0;
#X connect 12 0 4 0;
#X connect 13 0 15 0;
#X connect 13 1 14 0;
#X connect 14 0 12 3;
#X connect 14 1 5 0;
#X connect 15 0 12 2;
#X connect 15 1 3 0;
#X connect 16 0 1 0;
#X connect 17 0 18 0;
#X connect 17 1 13 0;
#X connect 18 2 12 1;
