#N canvas 10 25 1242 777 12;
#X obj 33 -152 hsl 128 15 0 1 0 0 empty empty pot1 -2 -8 0 10 #fcfcfc
#000000 #000000 0 1;
#X obj 35 -119 hsl 128 15 0 1 0 0 empty empty pot2 -2 -8 0 10 #fcfcfc
#000000 #000000 0 1;
#X obj 204 31 cnv 15 575 250 empty empty empty 20 12 0 14 #c4fcc4 #404040
0;
#X text 210 37 menu mockup;
#X obj 309 171 hsl 128 15 -3 3 0 0 empty empty empty -2 -8 0 10 #fcfcc4
#000000 #000000 0 1;
#X obj 306 217 hradio 15 1 0 5 empty empty empty 0 -8 0 10 #fcfcc4
#000000 #000000 0;
#X obj 306 261 hradio 15 1 0 5 empty empty empty 0 -8 0 10 #fcfcc4
#000000 #000000 0;
#X text 390 231 estas dos opciones se confirman con el boton de grabar/parar.
;
#X text 446 168 strech/shrink u octavador.;
#X obj 206 123 vradio 15 1 0 4 empty empty empty 0 -8 0 10 #fcfcc4
#000000 #000000 0;
#X obj -138 377 route 0 1 2 3;
#X obj -57 190 i;
#X obj -138 267 list prepend;
#X obj -138 292 list trim;
#X obj -57 167 * 4;
#X obj 306 193 r op3;
#X obj 306 237 r op4;
#X obj 306 124 tgl 15 0 empty empty empty 17 7 0 10 #fcfcc4 #000000
#000000 0 1;
#X obj 306 147 r op2;
#X text 364 36 el default de pot1 y 2 es cambiar el start-point y end-point.
En divergente se lo cambian a la ultima "nota" tocada.;
#X obj 306 97 r op1;
#N canvas 965 29 937 300 testin 0;
#X obj 11 64 route 0 1 2 3;
#X obj 64 160 - 3;
#X floatatom 64 185 5 0 0 0 - - - 0;
#X obj 64 135 * 6;
#X obj 117 157 i;
#X obj 119 219 s op3;
#X obj 166 158 i;
#X obj 168 220 s op4;
#X obj 117 132 * 5;
#X obj 166 133 * 5;
#X obj 11 138 i;
#X obj 12 221 s op1;
#X obj 64 219 s op2;
#X obj 11 101 * 2;
#X obj 11 27 inlet;
#X connect 0 0 13 0;
#X connect 0 1 3 0;
#X connect 0 2 8 0;
#X connect 0 3 9 0;
#X connect 1 0 2 0;
#X connect 2 0 12 0;
#X connect 3 0 1 0;
#X connect 4 0 5 0;
#X connect 6 0 7 0;
#X connect 8 0 4 0;
#X connect 9 0 6 0;
#X connect 10 0 11 0;
#X connect 13 0 10 0;
#X connect 14 0 0 0;
#X restore 13 347 pd testin;
#X obj -138 318 t l l, f 22;
#X obj -152 -152 tgl 15 0 empty empty menu 17 7 0 10 #fcfcfc #000000
#000000 0 1;
#X obj 50 -9 expr 1 - $f1;
#X obj -138 133 spigot;
#X obj -57 133 spigot;
#X obj 32 -99 t f f;
#X obj -57 -115 t f f;
#X obj -57 235 clip 0 3;
#X floatatom -39 378 5 0 0 0 - - - 0;
#X obj 50 17 t f f, f 10;
#X obj -99 107 t f f, f 12;
#X obj -94 440 i, f 2;
#X obj -72 531 i;
#X obj -72 506 * 5;
#X obj -116 502 * 4;
#X obj -116 527 - 2;
#X obj -138 572 i, f 2;
#X obj -94 415 * 5;
#X obj -72 556 clip 0 4;
#X obj -94 466 clip 0 4;
#X text 193 -132 valores normalizados. Luego se mapea en un rango correspondiente
;
#X text -14 467 mapeo de los valores antes de mandarse al patch;
#X obj 16 259 s m;
#X obj 206 91 r m;
#X obj 16 210 t f f;
#X obj -99 -47 t f f f, f 43;
#X obj -152 -100 t f f, f 8;
#X obj -152 -24 sel 1;
#X obj -3 100 s startpoint;
#X obj 64 75 s endpoint;
#X obj 212 -48 s rec/stop;
#X obj 199 -12 s in-menu?;
#X obj -138 650 s un/div;
#X obj -116 627 s duration;
#X obj -94 604 s savepoint;
#X obj -72 581 s loadpoint;
#X text 234 215 savepoint;
#X text 232 258 loadpoint;
#X text 240 170 duration;
#X text 326 121 un/div;
#X text 224 120 selection;
#X obj 48 288 s selection;
#X obj 349 -49 s notes;
#X obj 349 -80 hradio 25 1 0 8 empty empty empty 0 -8 0 10 #fcfcfc
#000000 #000000 0;
#X obj -3 43 spigot 1;
#X obj 64 43 spigot 1;
#N canvas 10 29 937 1001 #oscstufftest 0;
#X msg 12 54 1;
#X msg 116 775 disconnect;
#X obj 5 679 list prepend send;
#X obj 5 715 list trim;
#X obj 5 772 netsend -u -b;
#X obj 282 536 pack f f f f f, f 33;
#X obj 307 418 t b f;
#X obj 364 418 t b f;
#X obj 421 418 t b f;
#X obj 478 417 t b f;
#X obj 282 592 oscformat main menu;
#X obj 31 543 pack f f;
#X obj 52 459 t b f;
#X obj 5 115 oscformat main rec-button;
#X obj 31 593 oscformat main pointers;
#X msg 544 634 1;
#X obj 544 659 oscformat main test;
#X obj 12 29 r rec/stop;
#X obj 31 290 r startpoint;
#X obj 52 363 r startpoint;
#X obj 364 298 r duration;
#X obj 307 269 r un/div;
#X text 584 634 esto es para ver si anda nomas;
#X obj 421 328 r savepoint;
#X obj 478 360 r loadpoint;
#X obj 282 240 r selection;
#X text 92 27 TODO - hacer algo con el trigger de rec/stop \, tal vez?
;
#X obj -39 28 inlet;
#X connect 1 0 4 0;
#X connect 2 0 3 0;
#X connect 3 0 4 0;
#X connect 5 0 10 0;
#X connect 6 0 5 0;
#X connect 6 1 5 1;
#X connect 7 0 5 0;
#X connect 7 1 5 2;
#X connect 8 0 5 0;
#X connect 8 1 5 3;
#X connect 9 0 5 0;
#X connect 9 1 5 4;
#X connect 10 0 2 0;
#X connect 11 0 14 0;
#X connect 12 0 11 0;
#X connect 12 1 11 1;
#X connect 13 0 2 0;
#X connect 14 0 2 0;
#X connect 15 0 16 0;
#X connect 16 0 2 0;
#X connect 17 0 0 0;
#X connect 18 0 11 0;
#X connect 19 0 12 0;
#X connect 20 0 7 0;
#X connect 21 0 6 0;
#X connect 23 0 8 0;
#X connect 24 0 9 0;
#X connect 25 0 5 0;
#X connect 27 0 4 0;
#X restore 576 -32 pd #oscstufftest;
#X msg 592 -133 connect localhost 3001;
#X msg 667 -101 connect 192.168.1.19 3001;
#X msg 675 -66 disconnect;
#X obj 212 -76 tgl 20 0 empty empty grabar/parar 25 10 0 12 #fcfcfc
#000000 #000000 0 1;
#X connect 0 0 28 0;
#X connect 1 0 27 0;
#X connect 10 0 38 0;
#X connect 10 1 36 0;
#X connect 10 2 39 0;
#X connect 10 3 35 0;
#X connect 10 4 30 0;
#X connect 11 0 29 0;
#X connect 11 0 46 0;
#X connect 12 0 13 0;
#X connect 13 0 22 0;
#X connect 14 0 11 0;
#X connect 15 0 5 0;
#X connect 16 0 6 0;
#X connect 18 0 4 0;
#X connect 20 0 17 0;
#X connect 22 0 10 0;
#X connect 22 1 21 0;
#X connect 23 0 48 0;
#X connect 24 0 31 0;
#X connect 25 0 12 0;
#X connect 26 0 14 0;
#X connect 27 0 25 0;
#X connect 27 1 67 0;
#X connect 28 0 26 0;
#X connect 28 1 66 0;
#X connect 29 0 12 1;
#X connect 31 0 66 1;
#X connect 31 1 67 1;
#X connect 32 0 25 1;
#X connect 32 1 26 1;
#X connect 33 0 41 0;
#X connect 34 0 40 0;
#X connect 35 0 34 0;
#X connect 36 0 37 0;
#X connect 37 0 55 0;
#X connect 38 0 54 0;
#X connect 39 0 33 0;
#X connect 40 0 57 0;
#X connect 41 0 56 0;
#X connect 45 0 9 0;
#X connect 46 0 44 0;
#X connect 46 1 63 0;
#X connect 47 0 32 0;
#X connect 47 1 24 0;
#X connect 47 2 53 0;
#X connect 48 0 49 0;
#X connect 48 1 47 0;
#X connect 49 0 0 0;
#X connect 65 0 64 0;
#X connect 66 0 50 0;
#X connect 67 0 51 0;
#X connect 69 0 68 0;
#X connect 70 0 68 0;
#X connect 71 0 68 0;
#X connect 72 0 52 0;
