#N canvas 316 308 1113 387 12;
#X obj 48 -49 bng 15 250 50 0 empty empty reset 17 7 0 10 #fcfcfc #000000
#000000;
#X obj 418 44 r INIT=>SAMPLE@set-to-default-size;
#X obj 440 69 r START=>SAMPLE@clear-and-set-to-default-size;
#N canvas 10 0 937 872 #init 0;
#X obj 13 22 inlet;
#X obj 57 348 s INIT=>SAMPLE@set-to-default-size;
#X obj 35 372 s INIT=>CALC_NEW_LEN@set-MAX_LEN;
#X obj 79 251 samplerate~;
#X obj 79 276 v RATE;
#X msg 57 325 4;
#X obj 13 76 t b b b b b, f 13;
#X obj 157 533 v BUTTON_THRESHOLD_VALUE;
#X obj 109 592 v POT_MAX_VALUE;
#X msg 157 510 500;
#X msg 109 569 1023;
#X text 172 450 hay que describir estos valores para luego mapearlos
y normalizarlos (estoy asumiendo que el valor minimo de los potes es
"0" asi que si es otro el mapeo va a salir mal);
#X text 88 324 duracion maxima del sample en segundos;
#X obj 61 621 s INIT=>INPUTS@set_button_threshold;
#X obj 13 427 t b b b b, f 21;
#X obj 13 669 s INIT=>INPUTS@init_wiringPI;
#X obj 95 105 cnv 20 363 123 empty empty empty 20 12 0 12 #ffe3c6 #404040
0;
#X obj 101 201 s CWD;
#X text 149 201 (Current Working Directory);
#X obj 101 143 pdcontrol;
#X msg 101 115 dir;
#X text 175 142 DONE-test: setea el CWD automaticamente;
#X text 154 568 valor maximo de los potes;
#X text 190 507 [remplazar] threshold de los botones;
#X msg 101 168 symbol \$1/;
#X text 141 112 ruta de guardado/cargado;
#X text 189 167 añade "/";
#X connect 0 0 6 0;
#X connect 3 0 4 0;
#X connect 5 0 1 0;
#X connect 6 0 14 0;
#X connect 6 1 2 0;
#X connect 6 2 5 0;
#X connect 6 3 3 0;
#X connect 6 4 20 0;
#X connect 9 0 7 0;
#X connect 10 0 8 0;
#X connect 14 0 15 0;
#X connect 14 1 13 0;
#X connect 14 2 10 0;
#X connect 14 3 9 0;
#X connect 19 0 24 0;
#X connect 20 0 19 0;
#X connect 24 0 17 0;
#X restore 3 -34 pd #init;
#N canvas 10 29 937 1001 #calc_new_len 0;
#X obj 138 324 i;
#X obj 176 324 + 1;
#X obj 138 299 metro 1 1 samp;
#X msg 138 272 1;
#X msg 8 149 0;
#X msg 31 393 0;
#X msg 138 373 set \$1;
#X obj 8 174 t f b f;
#X obj 31 416 t f f, f 21;
#X obj 138 348 t f f, f 12;
#X obj 219 382 >= \$1;
#X obj 219 404 sel 1;
#X obj 8 38 inlet;
#X obj 138 184 inlet;
#X obj 251 358 v MAX_LEN;
#X obj 175 453 v NEW_LEN;
#X obj 251 334 inlet;
#X obj 31 487 s CALC_NEW_LEN=>SAMPLE@resize-to-NEW_LEN;
#X obj 219 427 s CALC_NEW_LEN=>REC@reached-MAX_LEN;
#X connect 0 0 1 0;
#X connect 0 0 9 0;
#X connect 1 0 0 1;
#X connect 2 0 0 0;
#X connect 3 0 2 0;
#X connect 4 0 7 0;
#X connect 5 0 8 0;
#X connect 6 0 5 0;
#X connect 7 0 0 0;
#X connect 7 1 5 0;
#X connect 7 2 2 0;
#X connect 8 0 17 0;
#X connect 8 1 15 0;
#X connect 9 0 6 0;
#X connect 9 1 10 0;
#X connect 10 0 11 0;
#X connect 11 0 18 0;
#X connect 12 0 4 0;
#X connect 13 0 3 0;
#X connect 14 0 10 1;
#X connect 16 0 14 0;
#X restore 5 693 pd #calc_new_len;
#X f 25;
#X obj 5 601 r STOP=>CALC_NEW_LEN@stop;
#X obj 91 629 r START=>CALC_NEW_LEN@start;
#X obj 177 658 r INIT=>CALC_NEW_LEN@set-MAX_LEN;
#X obj 474 93 r CALC_NEW_LEN=>SAMPLE@resize-to-NEW_LEN;
#X msg 7 80 0;
#X obj 542 121 r STOP=>SAMPLE@normalize;
#N canvas 10 29 937 1001 #sample 0;
#X msg 43 253 \; sample resize \$1;
#X obj 178 209 t b b;
#X msg 210 233 0;
#X obj 11 16 inlet;
#X obj 178 16 inlet;
#X obj 43 229 v MAX_LEN;
#X obj 271 16 inlet;
#X obj 271 233 t f f;
#X msg 474 248 \; sample normalize 1;
#X obj 474 16 inlet;
#X obj 303 256 expr 1000 * ($f1/RATE);
#X obj 303 281 v DUR;
#X obj 99 93 outlet;
#X obj 43 154 expr RATE * $f1;
#X obj 11 78 t b f;
#X obj 11 53 t f b, f 13;
#X connect 1 0 5 0;
#X connect 1 1 2 0;
#X connect 2 0 0 0;
#X connect 3 0 15 0;
#X connect 4 0 1 0;
#X connect 5 0 0 0;
#X connect 6 0 7 0;
#X connect 7 0 0 0;
#X connect 7 1 10 0;
#X connect 9 0 8 0;
#X connect 10 0 11 0;
#X connect 13 0 5 0;
#X connect 14 0 5 0;
#X connect 14 1 13 0;
#X connect 15 0 14 0;
#X connect 15 1 12 0;
#X restore 418 141 pd #sample;
#X obj 209 1370 clone astrasion 8;
#X msg 14 1254 next \$1;
#X msg 209 1282 this \$1;
#X msg 243 1246 set \$1;
#X obj 176 1209 t b f f, f 10;
#X msg 448 844 0;
#X obj 14 1066 list prepend;
#X obj 14 1121 route universal divergent;
#X obj 14 1093 list trim;
#X obj 81 186 t b b, f 29;
#X obj 81 219 s START=>CALC_NEW_LEN@start;
#X obj 281 220 s START=>SAMPLE@clear-and-set-to-default-size;
#X obj 7 536 text define data;
#X obj 89 401 list;
#X obj 89 426 text fromlist data;
#X obj 89 376 array get sample;
#X obj 438 293 s STOP=>CALC_NEW_LEN@stop;
#X obj 222 297 s STOP=>SAMPLE@normalize;
#X text 165 166 #start;
#X text 17 226 #stop;
#X obj 7 41 r CALC_NEW_LEN=>REC@reached-MAX_LEN;
#N canvas 10 29 937 1001 #rec 0;
#X obj 16 60 sel 0 1, f 14;
#X msg 63 91 start;
#X msg 16 85 stop;
#X obj 16 167 t b a;
#X obj 63 115 t a b;
#X obj 63 234 tabwrite~ sample;
#X obj 147 215 adc~;
#X obj 16 303 outlet;
#X obj 95 304 outlet;
#X obj 16 19 inlet;
#X connect 0 0 2 0;
#X connect 0 1 1 0;
#X connect 1 0 4 0;
#X connect 2 0 3 0;
#X connect 3 0 7 0;
#X connect 3 1 5 0;
#X connect 4 0 5 0;
#X connect 4 1 8 0;
#X connect 6 0 5 0;
#X connect 6 1 5 0;
#X connect 9 0 0 0;
#X restore 7 138 pd #rec;
#X f 11;
#X obj 291 29 - 1;
#X obj 291 57 abs;
#N canvas 10 27 937 872 #save 0;
#X msg 667 82 03.txt;
#X obj 635 -78 + 1;
#X obj 296 -54 r CWD;
#X obj 635 -2 t b f;
#X msg 667 58 set 0\$1.txt;
#X msg 296 1 set \$1;
#X obj 296 122 pack s s;
#X obj 508 102 symbol;
#X msg 296 147 \$1\$2;
#X obj 296 243 list prepend;
#X obj 296 266 list trim;
#X msg 377 213 write;
#X obj 296 -27 t s b, f 12;
#X msg 508 19 01.txt;
#X obj 377 -1 t b b;
#X text 373 266 TODO - send error msg if empty;
#X obj 35 -8 spigot 0;
#X msg 213 -118 1;
#X msg 253 -119 0;
#X obj 213 -53 i;
#X obj 213 -28 change;
#X obj 221 -156 sel 2;
#X obj 35 26 spigot 0;
#X obj 296 291 outlet;
#X obj 35 -53 r rec/stop;
#X obj 116 6 r in-menu?;
#X obj 635 -122 r savepoint;
#X obj 221 -205 r selection;
#X msg 296 46 /Users/MIKI/Desktop/puredata/Microsampler-master/;
#X connect 0 0 7 0;
#X connect 1 0 3 0;
#X connect 2 0 12 0;
#X connect 3 0 0 0;
#X connect 3 1 4 0;
#X connect 4 0 0 0;
#X connect 5 0 28 0;
#X connect 6 0 8 0;
#X connect 7 0 6 1;
#X connect 8 0 9 0;
#X connect 9 0 10 0;
#X connect 10 0 23 0;
#X connect 11 0 9 1;
#X connect 12 0 5 0;
#X connect 12 1 14 0;
#X connect 13 0 7 0;
#X connect 14 0 11 0;
#X connect 14 1 13 0;
#X connect 16 0 22 0;
#X connect 17 0 19 0;
#X connect 18 0 19 0;
#X connect 19 0 20 0;
#X connect 20 0 16 1;
#X connect 21 0 17 0;
#X connect 21 1 18 0;
#X connect 22 0 28 0;
#X connect 24 0 16 0;
#X connect 25 0 22 1;
#X connect 26 0 1 0;
#X connect 27 0 21 0;
#X connect 28 0 6 0;
#X restore 154 516 pd #save;
#N canvas 503 27 937 301 #load 0;
#X msg 672 307 03.txt;
#X obj 640 147 + 1;
#X obj 301 165 r CWD;
#X obj 640 223 t b f;
#X msg 672 283 set 0\$1.txt;
#X msg 301 226 set \$1;
#X obj 301 347 pack s s;
#X obj 519 327 symbol;
#X msg 301 372 \$1\$2;
#X obj 301 468 list prepend;
#X msg 382 438 read -resize -ascii;
#X obj 301 195 t s b, f 12;
#X obj 301 510 list append;
#X msg 414 490 sample;
#X obj 382 396 t b b;
#X obj 382 225 t b b, f 20;
#X msg 519 249 01.txt;
#X obj 8 217 spigot 0;
#X msg 186 107 1;
#X msg 226 106 0;
#X obj 186 172 i;
#X obj 186 197 change;
#X obj 8 251 spigot 0;
#X obj 301 540 list trim;
#X obj 301 570 soundfiler;
#X floatatom 240 157 5 0 0 0 - - - 0;
#X obj 186 68 sel 3 4, f 10;
#X obj 8 172 r rec/stop;
#X obj 89 231 r in-menu?;
#X obj 640 103 r loadpoint;
#X obj 186 22 r selection;
#X msg 301 271 /Users/MIKI/Desktop/puredata/Microsampler-master/;
#X connect 0 0 7 0;
#X connect 1 0 3 0;
#X connect 2 0 11 0;
#X connect 3 0 0 0;
#X connect 3 1 4 0;
#X connect 4 0 0 0;
#X connect 5 0 31 0;
#X connect 6 0 8 0;
#X connect 7 0 6 1;
#X connect 8 0 9 0;
#X connect 9 0 12 0;
#X connect 10 0 9 1;
#X connect 11 0 5 0;
#X connect 11 1 15 0;
#X connect 12 0 23 0;
#X connect 13 0 12 1;
#X connect 14 0 10 0;
#X connect 14 1 13 0;
#X connect 15 0 14 0;
#X connect 15 1 16 0;
#X connect 16 0 7 0;
#X connect 17 0 22 0;
#X connect 18 0 20 0;
#X connect 19 0 20 0;
#X connect 20 0 21 0;
#X connect 21 0 17 1;
#X connect 21 0 25 0;
#X connect 22 0 31 0;
#X connect 23 0 24 0;
#X connect 26 0 18 0;
#X connect 26 1 18 0;
#X connect 26 2 19 0;
#X connect 27 0 17 0;
#X connect 28 0 22 1;
#X connect 29 0 1 0;
#X connect 30 0 26 0;
#X connect 31 0 6 0;
#X restore 222 516 pd #load;
#X msg 95 867 universal;
#X msg 232 873 divergent;
#N canvas 310 291 1151 471 #parameters 0;
#X obj 151 462 pack f f f;
#X obj 172 415 t b f;
#X obj 234 435 t b f;
#X obj 151 503 list prepend, f 20;
#X obj 244 607 list prepend, f 17;
#X obj 151 558 route universal divergent, f 27;
#X obj 151 530 list trim;
#X msg 151 662 all \$1 \$2 \$3;
#X obj 244 682 outlet;
#X obj 84 558 inlet;
#X obj 423 331 inlet;
#X obj 537 394 inlet;
#X obj 599 415 inlet;
#X obj 288 458 inlet;
#X connect 0 0 3 0;
#X connect 1 0 0 0;
#X connect 1 1 0 1;
#X connect 2 0 0 0;
#X connect 2 1 0 2;
#X connect 3 0 6 0;
#X connect 4 0 8 0;
#X connect 5 0 7 0;
#X connect 5 1 4 0;
#X connect 6 0 5 0;
#X connect 7 0 8 0;
#X connect 9 0 4 1;
#X connect 10 0 0 0;
#X connect 11 0 1 0;
#X connect 12 0 2 0;
#X connect 13 0 3 1;
#X restore 325 1002 pd #parameters;
#X text 585 842 duration (-2/2);
#X text 587 817 end(0/1);
#X text 586 791 startpoint(0/1);
#X obj 232 898 t a a;
#X obj 95 892 t a a;
#X obj 418 170 array define sample 0;
#X msg 428 821 1;
#X msg 408 792 0;
#X obj 484 793 r startpoint;
#X obj 485 817 r endpoint;
#X obj 291 -7 r in-menu?;
#X obj 152 66 r rec/stop;
#X obj 95 798 r un/div;
#X obj 488 844 r duration;
#X obj 23 427 r CWD;
#X obj 172 343 s STOP=>SAMPLER@initialize(start \, end \, dur);
#X obj 408 705 r STOP=>SAMPLER@initialize(start \, end \, dur);
#X obj 95 824 moses 0.5, f 20;
#N canvas 418 29 1032 453 #inputs 0;
#X obj 246 272 expr $f1/POT_MAX_VALUE;
#X obj 464 237 expr $f1/POT_MAX_VALUE;
#X obj 246 342 outlet;
#X obj 464 344 outlet;
#X obj -30 138 inlet;
#X obj 60 158 t b b, f 96;
#X obj 824 482 hradio 15 1 0 8 empty empty empty 0 -8 0 10 #fcfcfc
#000000 #000000 0;
#X text 819 428 remplazar con input de notas los valores estan pensados
para que sean de 0 en adelante \, si usan midi entonces...;
#X text 839 503 <-conecten el [- 60] aca y traten de tocar notas mas
altas que C4;
#X obj 841 553 - 60;
#X obj 824 655 outlet;
#X obj 7 -93 cnv 20 190 200 empty empty empty 20 12 0 12 #ffe3c6 #404040
0;
#X obj 29 -16 metro 5;
#X msg 89 15 setup_wiringPi;
#X obj 29 48 wiringPi_mcp3008 0 8;
#X obj 29 -88 inlet;
#X obj 29 -52 t b b;
#X text 73 -51 DONE-test: no me acuerdo el orden xd;
#X obj 28 75 unpack f f f f, f 94;
#X text 32 118 menu;
#X text 252 117 pote 1;
#X text 471 115 pote 2;
#X text 688 113 grabar/parar;
#X obj 5 191 cnv 20 235 260 empty empty empty 20 12 0 12 #ffe3c6 #404040
0;
#X obj 60 421 outlet;
#X obj 60 212 v BUTTON_THRESHOLD_VALUE;
#X obj 28 273 moses;
#X obj 60 341 spigot 1;
#X msg 146 342 0;
#X msg 28 306 1;
#X msg 60 379 bang;
#X obj 672 192 cnv 20 235 230 empty empty empty 20 12 0 12 #ffe3c6
#404040 0;
#X obj 729 211 v BUTTON_THRESHOLD_VALUE;
#X obj 729 393 outlet;
#X obj 683 252 moses, f 7;
#X obj 729 320 spigot 1;
#X msg 815 321 0;
#X msg 683 285 1;
#X msg 729 358 bang;
#X text 11 428 a.;
#X text 678 399 a.;
#X obj 8 494 cnv 20 425 310 empty empty empty 20 12 0 12 #ffe3c6 #404040
0;
#X obj 31 582 hsl 128 15 0 127 0 0 empty empty empty -2 -8 0 10 #fcfcfc
#000000 #000000 0 1;
#X obj 193 639 v BUTTON_THRESHOLD_VALUE;
#X obj 193 581 bng 15 250 50 0 empty empty empty 17 7 0 10 #fcfcfc
#000000 #000000;
#X obj 28 677 moses;
#X obj 59 786 bng 15 250 50 0 empty empty empty 17 7 0 10 #fcfcfc #000000
#000000;
#X obj 60 745 spigot 1;
#X msg 146 746 0;
#X msg 28 710 1;
#X text 16 547 Creo que aca esta solucionado. Testear.;
#X text 16 495 a.DONE-test: hacer treshold inverso para los botones
(osea que cuando pulses \, mande solo una señal \, se traba y luego
tenes que dejar de apretar el boton para que se destrabe).;
#X connect 0 0 2 0;
#X connect 1 0 3 0;
#X connect 4 0 5 0;
#X connect 5 0 25 0;
#X connect 5 1 32 0;
#X connect 6 0 10 0;
#X connect 12 0 14 0;
#X connect 13 0 14 0;
#X connect 15 0 16 0;
#X connect 16 0 12 0;
#X connect 16 1 13 0;
#X connect 18 0 26 0;
#X connect 18 1 0 0;
#X connect 18 2 1 0;
#X connect 18 3 34 0;
#X connect 25 0 26 1;
#X connect 26 0 29 0;
#X connect 26 1 27 0;
#X connect 27 0 30 0;
#X connect 28 0 27 1;
#X connect 29 0 27 1;
#X connect 30 0 24 0;
#X connect 30 0 28 0;
#X connect 32 0 34 1;
#X connect 34 0 37 0;
#X connect 34 1 35 0;
#X connect 35 0 38 0;
#X connect 36 0 35 1;
#X connect 37 0 35 1;
#X connect 38 0 33 0;
#X connect 38 0 36 0;
#X connect 42 0 45 0;
#X connect 43 0 45 1;
#X connect 44 0 43 0;
#X connect 45 0 49 0;
#X connect 45 1 47 0;
#X connect 46 0 48 0;
#X connect 47 0 46 0;
#X connect 48 0 47 1;
#X connect 49 0 47 1;
#X restore 129 -66 pd #inputs;
#X f 21;
#N canvas 10 0 937 872 #send-input-values 0;
#X obj 13 546 route 0 1 2 3;
#X obj 94 359 i;
#X obj 13 483 list prepend;
#X obj 13 508 list trim;
#X obj 94 336 * 4;
#X obj 215 159 expr 1 - $f1;
#X obj 197 69 t f f;
#X obj 108 53 t f f;
#X obj 94 451 clip 0 3;
#X obj 215 185 t f f, f 8;
#X obj 66 275 t f f, f 12;
#X obj 57 609 i, f 2;
#X obj 79 700 i;
#X obj 79 675 * 5;
#X obj 35 671 * 4;
#X obj 35 696 - 2;
#X obj 13 741 i, f 2;
#X obj 57 584 * 5;
#X obj 79 725 clip 0 4;
#X obj 57 635 clip 0 4;
#X text 137 636 mapeo de los valores antes de mandarse al patch;
#X obj 94 394 t f f, f 11;
#X obj 66 121 t f f f, f 43;
#X obj 13 68 t f f, f 8;
#X obj 13 144 sel 1;
#X obj 162 268 s startpoint;
#X obj 229 243 s endpoint;
#X obj 364 156 s in-menu?;
#X obj 13 819 s un/div;
#X obj 35 796 s duration;
#X obj 57 773 s savepoint;
#X obj 79 750 s loadpoint;
#X obj 168 451 s selection;
#X obj 13 -23 inlet;
#X obj 108 -14 inlet;
#X obj 197 -30 inlet;
#X obj 598 155 s notes;
#X obj 598 117 inlet;
#X text -153 164 TODO: este [sel 1] no hace lo que deberia;
#X obj 162 211 spigot 1;
#X obj 229 211 spigot 1;
#X obj 13 302 spigot;
#X obj 94 302 spigot;
#X obj 446 -20 cnv 20 133 200 empty empty empty 20 12 0 12 #ffe3c6
#404040 0;
#X obj 458 155 s rec/stop;
#X obj 458 -16 inlet;
#X obj 458 71 t f f;
#X obj 490 104 - 1;
#X obj 490 131 abs;
#X obj 458 43 1;
#X msg 458 15 bang;
#X text 510 -17 DONE-test: hacer logica que permita apretar un boton
y que de un valor de 1 y cuando se vuelva apretar de un valor de 0
;
#X connect 0 0 16 0;
#X connect 0 1 14 0;
#X connect 0 2 17 0;
#X connect 0 3 13 0;
#X connect 1 0 21 0;
#X connect 2 0 3 0;
#X connect 3 0 0 0;
#X connect 4 0 1 0;
#X connect 5 0 9 0;
#X connect 6 0 41 0;
#X connect 6 1 40 0;
#X connect 7 0 42 0;
#X connect 7 1 39 0;
#X connect 8 0 2 1;
#X connect 9 0 39 1;
#X connect 9 1 40 1;
#X connect 10 0 41 1;
#X connect 10 1 42 1;
#X connect 11 0 19 0;
#X connect 12 0 18 0;
#X connect 13 0 12 0;
#X connect 14 0 15 0;
#X connect 15 0 29 0;
#X connect 16 0 28 0;
#X connect 17 0 11 0;
#X connect 18 0 31 0;
#X connect 19 0 30 0;
#X connect 21 0 8 0;
#X connect 21 1 32 0;
#X connect 22 0 10 0;
#X connect 22 1 5 0;
#X connect 22 2 27 0;
#X connect 23 0 24 0;
#X connect 23 1 22 0;
#X connect 24 0 7 0;
#X connect 33 0 23 0;
#X connect 34 0 7 0;
#X connect 35 0 6 0;
#X connect 37 0 36 0;
#X connect 39 0 25 0;
#X connect 40 0 26 0;
#X connect 41 0 2 0;
#X connect 42 0 4 0;
#X connect 45 0 50 0;
#X connect 46 0 44 0;
#X connect 46 1 47 0;
#X connect 47 0 48 0;
#X connect 48 0 49 1;
#X connect 49 0 46 0;
#X connect 50 0 49 0;
#X restore 129 -29 pd #send-input-values;
#X obj 129 -154 r INIT=>INPUTS@set_button_threshold;
#X obj 14 982 r notes;
#X obj 238 86 spigot 1;
#X obj 408 755 t b b b b;
#X obj 7 249 t b b b, f 62;
#X obj 7 300 t b b b, f 24;
#X obj 209 1435 dac~;
#X obj 273 -123 r INIT=>INPUTS@init_wiringPI;
#N canvas 10 29 937 1001 #testing 0;
#X obj 215 549 bng 15 250 50 0 empty empty empty 17 7 0 10 #fcfcfc
#000000 #000000;
#X obj 215 609 array size sample;
#X obj 215 579 t b b b b, f 65;
#X obj 516 609 v MAX_LEN;
#X obj 667 612 v NEW_LEN;
#X floatatom 215 682 8 0 0 0 - - - 0;
#X obj 215 645 t f f, f 14;
#X obj 304 691 / 44.1;
#X floatatom 295 742 8 0 0 0 - - - 0;
#X floatatom 375 694 8 0 0 0 - - - 0;
#X obj 375 657 t f f, f 14;
#X floatatom 455 754 8 0 0 0 - - - 0;
#X floatatom 539 696 8 0 0 0 - - - 0;
#X obj 539 659 t f f, f 14;
#X obj 628 705 / 44.1;
#X floatatom 619 756 8 0 0 0 - - - 0;
#X floatatom 699 708 8 0 0 0 - - - 0;
#X obj 699 671 t f f, f 14;
#X obj 788 717 / 44.1;
#X floatatom 779 768 8 0 0 0 - - - 0;
#X obj 464 703 * 44.1;
#X obj 365 609 v DUR;
#X connect 0 0 2 0;
#X connect 1 0 6 0;
#X connect 2 0 1 0;
#X connect 2 1 21 0;
#X connect 2 2 3 0;
#X connect 2 3 4 0;
#X connect 3 0 13 0;
#X connect 4 0 17 0;
#X connect 6 0 5 0;
#X connect 6 1 7 0;
#X connect 7 0 8 0;
#X connect 10 0 9 0;
#X connect 10 1 20 0;
#X connect 13 0 12 0;
#X connect 13 1 14 0;
#X connect 14 0 15 0;
#X connect 17 0 16 0;
#X connect 17 1 18 0;
#X connect 18 0 19 0;
#X connect 20 0 11 0;
#X connect 21 0 10 0;
#X restore 699 -143 pd #testing;
#N canvas 965 554 937 213 #osc-TEST-menu-receive 0;
#X obj 5 3 netreceive -u -b 3000;
#X obj 5 28 oscparse;
#X obj 5 51 list trim;
#X obj 5 183 outlet;
#X obj 58 183 outlet;
#X obj 111 183 outlet;
#X obj 164 183 outlet;
#X obj 216 185 outlet;
#X obj 267 186 outlet;
#X obj 5 77 route menu first-pot second-pot rec notes dsp;
#X connect 0 0 1 0;
#X connect 1 0 2 0;
#X connect 2 0 9 0;
#X connect 9 0 3 0;
#X connect 9 1 4 0;
#X connect 9 2 5 0;
#X connect 9 3 6 0;
#X connect 9 4 7 0;
#X connect 9 5 8 0;
#X restore 583 -108 pd #osc-TEST-menu-receive;
#N canvas 10 29 937 1001 #DEPRECATED 0;
#N canvas 10 29 937 1001 #oscstufftest 0;
#X msg 12 54 1;
#X msg 116 775 disconnect;
#X obj 5 679 list prepend send;
#X obj 5 715 list trim;
#X obj 5 772 netsend -u -b;
#X obj 282 536 pack f f f f f, f 33;
#X obj 307 418 t b f;
#X obj 364 418 t b f;
#X obj 421 418 t b f;
#X obj 478 417 t b f;
#X obj 282 592 oscformat main menu;
#X obj 31 543 pack f f;
#X obj 52 459 t b f;
#X obj 5 115 oscformat main rec-button;
#X obj 31 593 oscformat main pointers;
#X msg 544 634 1;
#X obj 544 659 oscformat main test;
#X obj 12 29 r rec/stop;
#X obj 31 290 r startpoint;
#X obj 364 298 r duration;
#X obj 307 269 r un/div;
#X text 584 634 esto es para ver si anda nomas;
#X obj 421 328 r savepoint;
#X obj 478 360 r loadpoint;
#X obj 282 240 r selection;
#X obj -39 28 inlet;
#X obj 52 363 r endpoint;
#X text 92 27 hacer algo con el trigger de rec/stop \, tal vez?;
#X connect 1 0 4 0;
#X connect 2 0 3 0;
#X connect 3 0 4 0;
#X connect 5 0 10 0;
#X connect 6 0 5 0;
#X connect 6 1 5 1;
#X connect 7 0 5 0;
#X connect 7 1 5 2;
#X connect 8 0 5 0;
#X connect 8 1 5 3;
#X connect 9 0 5 0;
#X connect 9 1 5 4;
#X connect 10 0 2 0;
#X connect 11 0 14 0;
#X connect 12 0 11 0;
#X connect 12 1 11 1;
#X connect 13 0 2 0;
#X connect 14 0 2 0;
#X connect 15 0 16 0;
#X connect 16 0 2 0;
#X connect 17 0 0 0;
#X connect 18 0 11 0;
#X connect 19 0 7 0;
#X connect 20 0 6 0;
#X connect 22 0 8 0;
#X connect 23 0 9 0;
#X connect 24 0 5 0;
#X connect 25 0 4 0;
#X connect 26 0 12 0;
#X restore 5 109 pd #oscstufftest;
#X msg 21 8 connect localhost 3001;
#X msg 96 40 connect 192.168.1.19 3001;
#X msg 104 75 disconnect;
#X connect 1 0 0 0;
#X connect 2 0 0 0;
#X connect 3 0 0 0;
#X restore 583 -143 pd #DEPRECATED;
#X obj 3 -153 loadbang;
#X obj 3 -127 t b b;
#X msg 35 -98 \; pd dsp 1;
#X msg 23 457 set write \$1temp.txt;
#X msg 7 486 write /Users/MIKI/Desktop/puredata/Microsampler-master/temp.txt
;
#X connect 0 0 3 0;
#X connect 1 0 11 0;
#X connect 2 0 11 1;
#X connect 5 0 4 0;
#X connect 6 0 4 1;
#X connect 7 0 4 2;
#X connect 8 0 11 2;
#X connect 9 0 33 0;
#X connect 10 0 11 3;
#X connect 11 0 46 0;
#X connect 12 0 67 0;
#X connect 12 0 67 1;
#X connect 13 0 12 0;
#X connect 14 0 12 0;
#X connect 15 0 12 0;
#X connect 16 1 14 0;
#X connect 16 2 15 0;
#X connect 17 0 40 4;
#X connect 18 0 20 0;
#X connect 19 0 13 0;
#X connect 19 1 16 0;
#X connect 20 0 19 0;
#X connect 21 0 22 0;
#X connect 21 1 23 0;
#X connect 25 0 26 0;
#X connect 27 0 25 0;
#X connect 32 0 9 0;
#X connect 33 0 65 0;
#X connect 33 1 21 0;
#X connect 34 0 35 0;
#X connect 35 0 63 1;
#X connect 36 0 24 0;
#X connect 38 0 45 0;
#X connect 39 0 44 0;
#X connect 40 0 12 1;
#X connect 44 0 18 1;
#X connect 44 1 40 1;
#X connect 45 0 18 1;
#X connect 45 1 40 1;
#X connect 47 0 40 3;
#X connect 48 0 40 2;
#X connect 49 0 40 2;
#X connect 50 0 40 3;
#X connect 51 0 34 0;
#X connect 52 0 63 0;
#X connect 53 0 58 0;
#X connect 54 0 40 4;
#X connect 55 0 75 0;
#X connect 57 0 64 0;
#X connect 58 0 38 0;
#X connect 58 1 39 0;
#X connect 59 0 60 0;
#X connect 59 1 60 1;
#X connect 59 2 60 2;
#X connect 59 3 60 3;
#X connect 59 4 60 4;
#X connect 61 0 59 0;
#X connect 62 0 18 0;
#X connect 62 0 40 0;
#X connect 63 0 33 0;
#X connect 64 0 48 0;
#X connect 64 1 47 0;
#X connect 64 2 17 0;
#X connect 64 3 38 0;
#X connect 65 0 66 0;
#X connect 65 1 29 0;
#X connect 65 2 28 0;
#X connect 66 0 76 0;
#X connect 66 1 27 0;
#X connect 66 2 56 0;
#X connect 68 0 59 1;
#X connect 70 0 60 0;
#X connect 70 1 60 1;
#X connect 70 2 60 2;
#X connect 70 3 60 3;
#X connect 70 4 60 4;
#X connect 72 0 73 0;
#X connect 73 0 3 0;
#X connect 73 1 74 0;
#X connect 75 0 76 0;
#X connect 76 0 24 0;
